<svg width="16" height="15" viewBox="0 0 16 15" fill="none" xmlns="http://www.w3.org/2000/svg">
<g id="symbol">
<g id="lines">
<path id="Vector" d="M0.20915 7.98337C0.0884867 7.98337 0 7.89 0 7.7655V6.42716C0 6.31304 0.0884867 6.20929 0.20915 6.20929C0.329814 6.20929 0.410256 6.31304 0.410256 6.42716V7.7655C0.410256 7.89 0.32177 7.98337 0.20915 7.98337Z" fill="#2B76DE"/>
<path id="Vector_2" d="M15.7989 7.98337C15.6782 7.98337 15.5898 7.89 15.5898 7.7655V6.42716C15.5898 6.31304 15.6782 6.20929 15.7989 6.20929C15.9196 6.20929 16 6.31304 16 6.42716V7.7655C16 7.89 15.9115 7.98337 15.7989 7.98337Z" fill="#2B76DE"/>
<path id="Vector_3" d="M1.84581 8.8704C1.72879 8.8704 1.64102 8.778 1.64102 8.67636V5.51628C1.64102 5.4054 1.73854 5.32224 1.84581 5.32224C1.96284 5.32224 2.0506 5.41464 2.0506 5.51628V8.67636C2.06036 8.78724 1.96284 8.8704 1.84581 8.8704Z" fill="#B8D1F4"/>
<path id="Vector_4" d="M3.89711 10.6445C3.78009 10.6445 3.69232 10.545 3.69232 10.4355V3.75716C3.69232 3.63773 3.78984 3.54816 3.89711 3.54816C4.01414 3.54816 4.1019 3.64768 4.1019 3.75716V10.4355C4.11166 10.545 4.01414 10.6445 3.89711 10.6445Z" fill="#B8D1F4"/>
<path id="Vector_5" d="M5.94872 12.4186C5.8315 12.4186 5.74359 12.3178 5.74359 12.2069V1.98576C5.74359 1.8648 5.84127 1.77408 5.94872 1.77408C6.06594 1.77408 6.15385 1.87488 6.15385 1.98576V12.1968C6.15385 12.3178 6.06594 12.4186 5.94872 12.4186Z" fill="#B8D1F4"/>
<path id="Vector_6" d="M14.1539 8.8704C14.0366 8.8704 13.9487 8.778 13.9487 8.67636V5.51628C13.9487 5.4054 14.0464 5.32224 14.1539 5.32224C14.2613 5.32224 14.359 5.41464 14.359 5.51628V8.67636C14.359 8.78724 14.2711 8.8704 14.1539 8.8704Z" fill="#B8D1F4"/>
<path id="Vector_7" d="M12.1026 10.6445C11.9853 10.6445 11.8974 10.545 11.8974 10.4355V3.75716C11.8974 3.63773 11.9951 3.54816 12.1026 3.54816C12.2198 3.54816 12.3077 3.64768 12.3077 3.75716V10.4355C12.3077 10.545 12.2198 10.6445 12.1026 10.6445Z" fill="#B8D1F4"/>
<path id="Vector_8" d="M10.0513 12.4186C9.93407 12.4186 9.84616 12.3178 9.84616 12.2069V1.98576C9.84616 1.8648 9.94384 1.77408 10.0513 1.77408C10.1685 1.77408 10.2564 1.87488 10.2564 1.98576V12.1968C10.2564 12.3178 10.1685 12.4186 10.0513 12.4186Z" fill="#B8D1F4"/>
<path id="Vector_9" d="M7.99999 14.1927C7.88277 14.1927 7.79486 14.0921 7.79486 13.9816V0.211081C7.79486 0.100515 7.88277 0 7.99999 0C8.11721 0 8.20512 0.100515 8.20512 0.211081V13.9715C8.20512 14.0921 8.11721 14.1927 7.99999 14.1927Z" fill="#B8D1F4"/>
</g>
<g id="smile">
<path id="Vector_10" d="M7.99919 10.9051C6.81041 10.9051 5.843 9.8628 5.80201 9.81401C5.72412 9.72531 5.72412 9.58782 5.80201 9.49911C5.88399 9.41485 6.01107 9.41485 6.09305 9.49911C6.10535 9.51242 6.98258 10.4616 7.99919 10.4616C9.04039 10.4616 9.89303 9.51686 9.90123 9.50799C9.97911 9.41928 10.1103 9.41485 10.1923 9.50355C10.2743 9.58782 10.2784 9.72975 10.2005 9.81845C10.1595 9.85837 9.21666 10.9051 7.99919 10.9051Z" fill="#2B76DE"/>
</g>
</g>
</svg>
